<svg xmlns="http://www.w3.org/2000/svg">
  <!-- бык stroke="currentColor"-->
  <symbol id="bull" viewBox="0 0 516.423 516.423" fill="currentColor">
    <path
      d="M487.733,72.903c-1.405-2.128-4.104-2.976-6.487-2.021c-2.368,0.954-3.742,3.442-3.282,5.951
			c3.129,17.181,0.27,31.399-8.513,42.247c-18.044,22.297-55.54,24.499-58.862,24.652c-18.531-31.103-52.31-51.303-90.668-51.303
			c-45.501,0-74.759,15.395-93.508,49.487c-8.977-1.21-42.09-6.974-57.103-27.686c-7.305-10.079-9.3-22.58-5.925-37.147
			c0.604-2.609-0.8-5.263-3.293-6.226c-2.502-0.968-5.324,0.061-6.628,2.381c-1.538,2.743-37.401,67.689-13.659,111.815
			c4.202,7.808,10.068,14.367,17.389,19.798h-53.893c-20.074,0-38.113,8.696-50.707,22.447c-1.308-0.252-2.704-0.042-3.908,0.735
			C46.697,229.312,0,260.496,0,356.34c0,2.966,2.41,5.375,5.375,5.375c2.969,0,5.376-2.409,5.376-5.375
			c0-50.604,13.853-82.011,25.974-99.823c-1.417,5.508-2.252,11.234-2.252,17.171v141.797c0,2.966,2.41,5.376,5.375,5.376h20.979
			c2.549,14.221,14.992,25.07,29.943,25.07h19.534c14.949,0,27.388-10.85,29.942-25.07h87.08
			c2.549,14.221,14.987,25.07,29.942,25.07h19.539c14.95,0,27.396-10.85,29.938-25.07h26.099c2.972,0,5.376-2.41,5.376-5.376
			v-28.766c44.977-4.29,79.979-32.952,80.967-67.865c0.021-0.179,0.114-0.341,0.114-0.52c0-0.089-0.052-0.153-0.052-0.252
			c0-0.094,0.011-0.179,0.011-0.272c0-0.016,0.01-0.031,0.021-0.062l5.691-69.761c1.512,0.197,3.044-0.188,4.2-1.188
			c0.67-0.575,1.143-1.302,1.459-2.103c6.152,7.769,15.423,14.93,28.972,14.93l0,0c8.073,0,16.797-2.677,25.953-7.95
			c2.236-1.292,3.249-4,2.377-6.441c-0.336-0.934-7.464-19.911-35.245-25.591c29.906-7.73,49.554-21.722,58.438-41.795
			C530.154,134.883,492.143,79.119,487.733,72.903z M149.27,179.976c-12.793-23.749-5.053-56.079,3.005-77.814
			c1.483,6.646,4.262,12.79,8.336,18.407c15.262,21.019,44.525,28.617,58.877,31.166c-7.38,16.572-9.993,46.746-10.798,59.689
			c-9.197-0.966-17.337-2.72-24.641-5.084c-0.963-0.913-2.248-1.493-3.683-1.493h-0.871
			C165.396,199.425,155.28,191.12,149.27,179.976z M90.765,435.175c-8.981,0-16.499-6.077-18.859-14.319h37.71
			C107.262,429.09,99.752,435.175,90.765,435.175z M114.309,434.762c3.232-3.938,5.468-8.694,6.402-13.906h8.452
			C127.157,427.832,121.48,433.266,114.309,434.762z M257.264,435.175c-8.984,0-16.499-6.077-18.854-14.319h37.715
			C273.767,429.09,266.247,435.175,257.264,435.175z M280.802,434.762c3.233-3.938,5.47-8.694,6.404-13.906h8.44
			C293.663,427.832,287.978,433.266,280.802,434.762z M327.463,410.104H45.219V273.683c0-32.029,26.055-58.087,58.083-58.087h74.281
			c2.956,1.052,6.074,1.992,9.305,2.821c-29.77,6.816-34.884,24.397-35.124,25.289c-0.644,2.452,0.512,5.021,2.769,6.163
			c10.698,5.433,20.224,8.174,28.308,8.174c8.116,0,14.874-2.675,20.066-7.948c5.8-5.898,8.349-13.869,9.472-19.972
			c2.423,2.742,6.577,7.226,12.147,12.37c0.275,0.252,0.57,0.509,0.851,0.761c-0.056,0.419-0.157,0.824-0.108,1.265l8.617,74.435
			c0.01,0.109,0.074,0.193,0.092,0.299c1.375,37.707,42.332,68.068,92.594,68.068c0.311,0,0.594-0.031,0.893-0.031V410.104
			L327.463,410.104z M202.024,226.914c-0.708,4.693-2.467,11.294-6.811,15.675c-6.289,6.359-16.716,6.246-30.88,0.034
			C168.128,237.548,178.003,228.947,202.024,226.914z M266.397,347.18c-2.939-0.347-5.051-3.029-4.701-5.975
			c0.339-2.945,3.021-5.022,5.967-4.703l36.432,4.321c0.268,0.036,0.478,0.161,0.719,0.23c0.346,0.1,0.693,0.172,1.008,0.336
			c0.32,0.163,0.571,0.368,0.86,0.566c0.272,0.21,0.537,0.41,0.761,0.661c0.231,0.268,0.395,0.557,0.573,0.847
			c0.162,0.304,0.341,0.571,0.462,0.901c0.12,0.343,0.151,0.699,0.221,1.055c0.031,0.254,0.141,0.473,0.141,0.729v10.195
			c0,2.966-2.414,5.376-5.375,5.376c-2.971,0-5.376-2.41-5.376-5.376v-5.406L266.397,347.18z M382.84,347.175l-30.908,3.732v5.422
			c0,2.966-2.415,5.376-5.376,5.376c-2.976,0-5.375-2.41-5.375-5.376v-10.195c0-0.262,0.109-0.487,0.142-0.734
			c0.058-0.356,0.1-0.709,0.209-1.039c0.111-0.335,0.301-0.603,0.462-0.903c0.174-0.305,0.343-0.582,0.563-0.845
			c0.229-0.257,0.498-0.451,0.781-0.662c0.278-0.21,0.53-0.413,0.834-0.571c0.337-0.163,0.667-0.241,1.008-0.335
			c0.252-0.069,0.462-0.2,0.714-0.231l35.644-4.311c2.988-0.346,5.633,1.742,5.975,4.688
			C387.884,344.14,385.791,346.818,382.84,347.175z M408.877,312.958H244.006l-6.94-59.945
			c15.751,11.973,36.208,22.833,58.645,22.833c2.215,0,4.461-0.116,6.718-0.343c1.607-0.161,3.055-1.039,3.947-2.397
			c0.894-1.355,1.125-3.035,0.642-4.583l-2.226-6.981c9.848,3.003,25.668,6.729,43.454,6.729c16.608,0,31.612-3.28,44.577-9.77
			c2.321-1.162,3.477-3.819,2.752-6.312l-3.025-10.363l21.796,4.187L408.877,312.958z M475.535,244.825
			c-5.718,2.706-11.071,4.071-15.932,4.071l0,0c-14.275,0-22.448-12.263-26.206-20.082c0.914-0.023,1.806-0.034,2.688-0.034
			C460.652,228.769,471.387,238.961,475.535,244.825z M501.309,173.505c-9.213,20.796-33.004,34.121-70.753,39.645
			c-1.374-15.176-4.703-44.022-11.133-59.432c14.241-1.816,42.147-7.864,58.357-27.84c6.761-8.341,10.726-18.142,11.848-29.273
			C500.071,116.151,512.606,147.967,501.309,173.505z" />
  </symbol>
  <!-- курица -->
  <symbol id="chicken" viewBox="0 0 64 64">
    <path
      d="M62 29.167l-.327-1.213c-.09-.329-1.794-6.409-6.707-9.129c4.475-3.601 5.453-8.119 5.502-8.357l.269-1.319l-1.083-.753c-.291-.202-2.982-1.982-7.537-1.982c-3.678 0-7.488 1.16-11.326 3.448c-3.697 2.204-4.594 5.703-5.385 8.789c-1.006 3.932-1.824 7.056-7.806 8.482a32.756 32.756 0 0 1-1.463-.215l2.124-2s-4.656 1.5-6.412.003c-.1-.085-.211-.27-.203-.667c.016-.726.992-7.256.994-9.148c4.165-.976 6.219-5.271 4.447-6.351c-1.251-.764-2.824 1.219-5.736 1.859c.027-.383.035-.79-.006-1.242c-.227-2.526 3.335-3.503 2.903-4.805c-.561-1.689-5.144-.647-7.347 3.071a6.068 6.068 0 0 0-.61 1.465a7.435 7.435 0 0 0-.403-1.162c-1.025-2.31 2.176-4.398 1.197-5.522c-1.295-1.486-5.063 1.135-5.949 5.393a6.2 6.2 0 0 0 .07 2.696c-.088-.077-.161-.153-.257-.231c-1.628-1.298.027-4.048-1.194-4.556c-1.74-.727-3.314 2.85-2.366 6.347c.2.736.606 1.473 1.126 2.036c-3.282.371-5.704 3.53-5.811 3.674L2 18.712l1.141-.131c.013-.002.279-.03.689-.03c.573 0 1.359.068 2.132.3c-1.081 1.144-2.095 2.536-2.73 4.167c-1.465 3.758 1.86 1.811 2.537 1.893c0 0 .321.462.725.77c-.004.225-.021.436-.021.665c0 2.933.607 11.413.633 11.772l.182 2.524l1.508-1.931c2.675 7.763 8.889 14.146 16.18 15.771c.91 1.119 2.32 2.298 3.919 2.797c-2.45 3.485-6.984 3.83-6.984 4.721h13.886c0-.921-2.468-.701-4.164-4.698c1.734-.585 3.303-2.302 4.338-4.013c4.563-2.061 8.415-5.941 10.926-10.631c2.637.883 4.91 1.008 5.094 1.016l1.451.063l.467-1.419c.076-.23 1.578-4.879.965-9.325c3.662-.733 6.088-2.888 6.209-2.997l.917-.829M6.749 18.071c-.88-.35-1.803-.483-2.534-.513c.958-.968 2.749-2.428 4.808-2.483c-.32.561-.615 1.166-.884 1.815c-.446.344-.916.739-1.39 1.181m1.663 8.274c0-5.458 1.335-9.306 3.244-11.716c.068-.054.139-.104.207-.168c.548-.515 1.906-1.326 2.732-1.554c.616-.169 2.162-.101 3.132.587c.892.637 1.547 1.753 2.849 1.808c.041.002.079-.004.12-.003c-.037 1.815-.97 8.055-.988 8.91c-.019.841.243 1.57.756 2.11c.42.442.992.749 1.71.918l-2.159 1.482l1.771 2.147l-4.604-.493l.684 4.097l-4.182-3.104l-.576 4.729l-2.416-2.999l-1.824 2.336c-.188-2.816-.456-7.208-.456-9.087m26.516 25.228l-.297.129l-.164.286c-1.192 2.085-2.853 3.54-4.037 3.54c-1.321 0-3.026-1.054-4.147-2.561l-.224-.301l-.36-.073c-7.158-1.438-13.236-7.949-15.461-15.729l.477-.609l3.759 4.665l.727-5.965l5.38 3.996l-1.053-6.315l6.516.699c-2.584 1.981-3.816 4.976-3.247 8.088c.665 3.629 3.632 6.326 7.558 6.872c.908.126 1.807.189 2.674.189c6.772 0 9.977-3.809 10.109-3.972l.377-.459l-.217-.559c-.529-1.364-1.602-2.396-2.484-3.061c1.992-1.629 3.151-3.834 3.209-3.945l.496-.956l-.964-.433c-.964-.433-3.321-.742-5.056-.922a17.79 17.79 0 0 0 1.021-1.565l.653-1.149l-1.254-.324c-.07-.019-1.743-.444-4.081-.444c-2.904 0-5.485.635-7.67 1.888c-.326.188-.623.399-.918.614l-3.346-4.06l.881-.604c2.041.369 3.803.688 4.914.688c4.137 0 8.021-1.21 11.143-2.183c2.222-.691 4.141-1.29 5.55-1.29c1.007 0 2.692 0 2.692 4.811c-.001 8.887-5.534 17.724-13.156 21.014m1.541-15.569c1.456.11 3.724.349 5.166.626c-.642.919-1.707 2.201-3.074 2.952l-1.688.93l1.727.855c.02.01 1.748.879 2.613 2.302c-.987.898-3.628 2.815-8.186 2.815c-.781 0-1.593-.058-2.414-.172c-3.744-.521-5.508-3.059-5.912-5.262c-.486-2.659.819-5.234 3.409-6.72c1.894-1.085 4.157-1.636 6.728-1.636c.855 0 1.613.064 2.211.14c-.331.468-.744 1-1.195 1.466l-1.493 1.544l2.108.16m15.993-4.77c1.603 4.387-.391 10.441-.391 10.441s-1.973-.09-4.296-.819c1.435-3.23 2.247-6.76 2.247-10.297c0-2.923-.48-6.811-4.632-6.811c-1.696 0-3.741.638-6.11 1.375c-1.877.585-3.904 1.211-6.048 1.626c5.401-4.245 2.722-11.694 8.528-15.157c4.104-2.446 7.617-3.179 10.355-3.179c4.094 0 6.453 1.641 6.453 1.641s-1.3 6.354-8.643 9.476c7.474.065 9.877 8.961 9.877 8.961s-3.035 2.743-7.34 2.743"
      fill="currentColor"></path>
    <ellipse cx="6.905" cy="16.349" rx=".65" ry=".326" fill="currentColor"></ellipse>
    <circle cx="12.335" cy="16.675" r="1.5" fill="currentColor"></circle>
  </symbol>
  <!-- Собака -->
  <symbol id="dog" viewBox="0 0 64 64">
    <path
      d="M50.06 4.788c-2.129-1.285-3.509-.818-4.228-.318c-.792-.505-1.59-.93-2.378-1.225C41.34 2.454 37.911 2 34.046 2s-7.295.454-9.408 1.245c-.789.295-1.587.72-2.379 1.225c-.721-.498-2.101-.96-4.224.322c-4.831 2.921-15.184 1.764-9.056 14.349c.938 1.923 1.667 3.294 2.31 4.108c-.058 4.848 1.047 10.71 3.28 15.047c-.781 1.26-1.952 3.748-1.855 7.185C7.305 44.176 3 37.808 3 37.808c0 7.954 6.191 11.56 10.358 11.599a19.998 19.998 0 0 0 1.75 4.117c.853 1.525 3.449 2.585 5.659 3.103c.463 1.67 1.048 2.814 1.772 3.521C23.946 61.519 26.641 62 28.834 62c.134 0 .267-.001.396-.004c2.002-.055 3.695-.494 4.817-1.232c1.122.738 2.814 1.178 4.814 1.232c2.254.052 5.197-.394 6.692-1.849c.714-.696 1.296-1.848 1.76-3.519c2.212-.518 4.816-1.576 5.672-3.105c3.889-6.953 2.143-12.222.928-14.547c2.315-4.451 3.181-10.78 2.965-15.827c.624-.825 1.334-2.161 2.235-4.013C65.243 6.55 54.89 7.709 50.06 4.788M16.867 52.603c-3.215-5.749-2.181-10.062-1.119-12.32c.876 1.271 1.88 2.315 3.01 3.048c.128.268.351.689.671 1.196c.143 4.215.422 7.489.865 9.967c-1.803-.548-3.106-1.318-3.427-1.891m3.309-11.808a4.054 4.054 0 0 1 0-5.797l6.421-6.303c.742-.729 1.67-1.314 2.713-1.758c-.35.374-.563.85-.563 1.488c0 1.766 4.217 3.331 5.3 3.331c1.081 0 5.3-1.565 5.3-3.331c0-.639-.214-1.115-.563-1.489c1.045.444 1.974 1.03 2.719 1.758l6.416 6.304a4.053 4.053 0 0 1 .001 5.796a4.173 4.173 0 0 1-2.941 1.192a4.18 4.18 0 0 1-2.714-1.006l-.054-.048a3.412 3.412 0 0 0-.176-.138l-5.718-5.611l-.703-.69c-.389-.382-.959-.602-1.565-.602c-.605 0-1.176.22-1.563.601l-.905.888l-5.577 5.46c-.041.03-.082.062-.121.096l-.042.037a4.171 4.171 0 0 1-2.72 1.014a4.185 4.185 0 0 1-2.945-1.192m9.531.125c.432 2.359 2.49 3.416 4.34 3.416c1.849 0 3.907-1.057 4.338-3.416c.13-.704.003-1.605-.364-2.687l2.524 2.479l.609.598l-2.382 2.339c-1.102 1.079-2.823 1.698-4.725 1.698c-1.902 0-3.627-.619-4.73-1.697l-2.38-2.338l3.134-3.074c-.368 1.077-.493 1.979-.364 2.682m1.685-3.332h1.838l.816 4.756l.816-4.756H36.7c.59 1.354.834 2.437.701 3.163c-.331 1.809-1.924 2.617-3.354 2.617c-1.433 0-3.024-.809-3.355-2.617c-.133-.727.11-1.809.7-3.163m1.907 21.264c-.637.694-2.218 1.157-4.124 1.21c-2.233.058-4.383-.465-5.217-1.279c-1.238-1.207-2.046-5.128-2.411-11.653c1.881 1.85 4.8 3.762 9.178 4.426c-.372-.512-.616-1.309-.616-2.215c0-.179.017-.352.036-.521c.312.084.625.174.935.24c-.007.093-.016.186-.016.281c0 1.274.54 2.272 1.23 2.398c.46.034.928.061 1.412.07a57.512 57.512 0 0 0-.051 2.117c.011 1.434.058 2.867.214 4.302l-.57.624m10.835-.07c-.834.814-2.986 1.333-5.216 1.279c-1.907-.053-3.487-.516-4.122-1.21l-.576-.627c.155-1.434.199-2.867.207-4.301a55.44 55.44 0 0 0-.054-2.118c6.067-.083 9.895-2.397 12.175-4.639c-.363 6.5-1.172 10.407-2.414 11.616m7.094-6.18c-.322.574-1.631 1.348-3.441 1.895c.451-2.49.736-5.771.878-9.947c.095-.149.183-.293.259-.426c.377-.225.743-.438 1.131-.674c.979-.596 1.837-1.432 2.59-2.436c.883 2.351 1.481 6.403-1.417 11.588m-2.241-10.789c-5.77 3.517-10.206 5.697-14.492 5.697c-3.928 0-7.993-1.845-13.083-4.855a5.27 5.27 0 0 0 1.706.3c1.122 0 2.18-.362 3.063-1.005l2.424 2.379c1.291 1.262 3.274 1.986 5.442 1.986c2.166 0 4.148-.725 5.437-1.987l2.425-2.38a5.189 5.189 0 0 0 3.067 1.007a5.184 5.184 0 0 0 3.653-1.48a5.003 5.003 0 0 0 0-7.154l-5.363-5.27a6.083 6.083 0 0 0 3.584 1.155c3.248 0 5.891-2.49 5.891-5.551c0-3.062-2.643-5.552-5.891-5.552s-5.892 2.49-5.892 5.552c0 1.213.42 2.333 1.123 3.247c-1.937-1.815-4.849-2.86-8.038-2.86c-3.197 0-6.117 1.051-8.048 2.877a5.3 5.3 0 0 0 1.137-3.264c0-3.062-2.644-5.552-5.892-5.552s-5.89 2.49-5.89 5.552c0 3.061 2.642 5.551 5.89 5.551a6.093 6.093 0 0 0 3.604-1.169l-5.381 5.283a4.996 4.996 0 0 0-.081 7.058c-3.905-3.048-6.039-11.258-6.084-17.644c.773-.733 1.614-2.558 2.788-5.591c.955-2.468.964-4.354 1.183-6.04c2.297-3.134 5.328-6.02 8.089-7.053c1.865-.697 5.113-1.114 8.688-1.114s6.821.417 8.687 1.114c2.763 1.033 5.795 3.921 8.093 7.057c.218 1.685.229 3.568 1.181 6.032c1.254 3.238 2.126 5.088 2.943 5.713c.199 6.793-1.734 15.383-5.963 17.961m-.789-13.358c.782 0 1.507-.219 2.125-.58a5.037 5.037 0 0 1-3.473 1.362c-2.697 0-4.891-2.057-4.891-4.583c0-2.527 2.193-4.584 4.891-4.584c1.358 0 2.588.523 3.475 1.363a4.201 4.201 0 0 0-2.127-.581c-2.234 0-4.044 1.703-4.044 3.802c0 2.1 1.81 3.801 4.044 3.801m-28.303-7.602c-.783 0-1.507.219-2.126.581a5.033 5.033 0 0 1 3.473-1.363c2.697 0 4.892 2.057 4.892 4.584c0 2.526-2.194 4.583-4.892 4.583a5.04 5.04 0 0 1-3.473-1.362c.619.361 1.343.58 2.126.58c2.233 0 4.042-1.701 4.042-3.801c0-2.099-1.809-3.802-4.042-3.802"
      fill="currentColor"></path>
    <path d="M28.039 31.623l-.899-.843l-.898.845l.898.843z" fill="currentColor"></path>
    <path d="M25.899 33.946l-.898-.845l-.898.845l.898.845z" fill="currentColor"></path>
    <path d="M26.916 34.791l.897.845l.899-.845l-.899-.845z" fill="currentColor"></path>
    <path d="M43.989 33.946l-.898-.845l-.899.845l.899.845z" fill="currentColor"></path>
    <path d="M41.85 31.625l-.898-.845l-.898.843l.898.845z" fill="currentColor"></path>
    <path d="M41.177 34.791l-.899-.845l-.898.845l.898.845z" fill="currentColor"></path>
  </symbol>
  <!-- Дракон -->
  <symbol id="dragon" viewBox="0 0 512 512" fill="currentColor">
    <path
      d="M161.937,188.125c-23.281,0-42.221,18.941-42.221,42.221s18.941,42.221,42.221,42.221s42.221-18.941,42.221-42.221
			S185.218,188.125,161.937,188.125z M161.937,256.534c-14.44,0-26.188-11.748-26.188-26.188s11.748-26.188,26.188-26.188
			s26.188,11.748,26.188,26.188S176.377,256.534,161.937,256.534z" />
    <path
      d="M161.937,222.287c-4.427,0-8.059,3.632-8.059,8.059s3.632,8.059,8.059,8.059s8.059-3.632,8.059-8.059
			S166.365,222.287,161.937,222.287z" />
    <path
      d="M350.063,188.125c-23.28,0-42.221,18.941-42.221,42.221s18.941,42.221,42.221,42.221
			c23.281,0,42.221-18.941,42.221-42.221S373.343,188.125,350.063,188.125z M350.063,256.534c-14.44,0-26.188-11.748-26.188-26.188
			s11.748-26.188,26.188-26.188s26.188,11.748,26.188,26.188S364.502,256.534,350.063,256.534z" />
    <path
      d="M350.063,222.287c-4.427,0-8.059,3.632-8.059,8.059s3.632,8.059,8.059,8.059s8.06-3.632,8.06-8.059
			S354.49,222.287,350.063,222.287z" />
    <path
      d="M503.983,273.637c-4.427,0-8.017,3.589-8.017,8.017c0,5.786-5.068,16.712-14.754,26.398
			c-6.309,6.309-19.516,16.892-37.087,16.892h-36.75c4.725-2.873,9.215-6.094,13.442-9.62h6.205
			c38.708,0,59.324-29.487,59.324-50.772c0-4.427-3.589-8.017-8.017-8.017s-8.017,3.589-8.017,8.017
			c0,10.661-9.843,29.459-33.06,33.813c14.679-18.775,23.44-42.392,23.44-68.018c0-30.057-12.044-58.24-32.99-78.824
			c7.724,0.121,15.801,0.529,24.248,1.297c3.509,0.315,6.813-1.689,8.146-4.949c1.334-3.26,0.383-7.009-2.343-9.24
			c-0.719-0.588-14.554-11.794-35.509-21.565c8.292-10.788,21.346-31.872,21.346-57.742c0-37.099-18.656-56.182-19.451-56.975
			c-2.292-2.294-5.741-2.978-8.736-1.738c-2.996,1.241-4.949,4.163-4.949,7.406c0,39.792-25.543,64.11-44.636,78.839
			C333.722,63.585,295.876,51.307,256,51.307c-39.865,0-77.721,12.278-109.82,35.549c-19.093-14.73-44.635-39.049-44.635-78.839
			c0-3.243-1.953-6.165-4.949-7.406c-2.993-1.24-6.443-0.556-8.736,1.738c-0.794,0.793-19.451,19.876-19.451,56.975
			c0,25.869,13.053,46.953,21.347,57.743c-20.955,9.771-34.79,20.977-35.509,21.565c-2.726,2.231-3.677,5.979-2.343,9.24
			c1.333,3.26,4.635,5.266,8.146,4.949c8.446-0.768,16.524-1.176,24.248-1.297c-20.947,20.584-32.991,48.767-32.991,78.823
			c0,25.626,8.761,49.243,23.44,68.018c-23.216-4.355-33.06-23.152-33.06-33.813c0-4.427-3.589-8.017-8.017-8.017
			c-4.427,0-8.017,3.589-8.017,8.017c0,21.286,20.616,50.772,59.324,50.772h6.205c4.227,3.526,8.718,6.747,13.442,9.62h-36.75
			c-17.572,0-30.779-10.583-37.087-16.892c-9.686-9.686-14.754-20.612-14.754-26.398c0-4.427-3.589-8.017-8.017-8.017
			c-4.427,0-8.017,3.589-8.017,8.017c0,11.108,7.635,25.92,19.451,37.735c13.921,13.921,31.119,21.588,48.424,21.588h43.002
			l-3.831,1.915c-2.716,1.357-4.432,4.133-4.432,7.17s1.716,5.813,4.432,7.17c10.379,5.19,20.389,9.402,29.985,12.807l5.753,69.04
			c0.712,8.54,4.012,16.346,9.071,22.682h-7.018c-2.957,0-5.674,1.627-7.068,4.234c-1.395,2.607-1.242,5.77,0.398,8.229
			C156.732,502.076,193.54,512,221.795,512c14.087,0,27.871-5.072,34.205-7.769c6.333,2.697,20.118,7.769,34.205,7.769
			c28.255,0,65.064-9.924,83.63-37.775c1.64-2.46,1.793-5.622,0.398-8.229c-1.395-2.606-4.111-4.234-7.068-4.234h-7.018
			c5.058-6.335,8.359-14.141,9.071-22.682l5.753-69.04c9.595-3.406,19.606-7.619,29.985-12.809c2.716-1.357,4.432-4.133,4.432-7.17
			c0-3.037-1.716-5.813-4.432-7.17l-3.831-1.914h43.002c17.305,0,34.503-7.667,48.424-21.588
			C504.365,307.573,512,292.761,512,281.653C512,277.226,508.411,273.637,503.983,273.637z M423.446,33.06
			c2.731,8.044,4.111,16.844,4.111,26.264c0,24.292-14.792,44.27-20.805,51.387c-0.592-0.209-1.182-0.422-1.781-0.626
			c-11.61-3.964-22.922-6.337-33.845-7.139C388.106,90.336,414.544,68.452,423.446,33.06z M399.376,125.116
			c8.823,2.981,16.896,6.675,23.807,10.331c-0.08,0-0.161,0-0.239,0c-51.589,0-87.518,12.451-105.787,20.793
			c-4.317,1.971-9.404,0.463-12.103-3.584c-2.781-4.172-1.908-9.852,2.032-13.214c16.271-13.883,34.885-20.841,55.62-20.841
			C374.282,118.601,386.519,120.771,399.376,125.116z M276.936,252.55c-6.449-2.948-13.561-4.566-20.936-4.566
			s-14.488,1.618-20.936,4.566c2.139-7.03,3.3-14.482,3.3-22.203c0-24.096-11.22-45.609-28.698-59.627
			c4.175-1.957,7.879-5.057,10.622-9.17c0.837-1.255,1.534-2.565,2.125-3.906c11.323,9.418,20.291,21.309,26.24,34.953
			c1.274,2.922,4.16,4.812,7.349,4.812c3.188,0,6.075-1.89,7.349-4.812c5.935-13.609,14.91-25.526,26.238-34.957
			c0.591,1.343,1.289,2.653,2.126,3.909c2.743,4.113,6.447,7.213,10.622,9.17c-17.479,14.02-28.699,35.532-28.699,59.628
			C273.637,238.067,274.798,245.519,276.936,252.55z M222.33,230.347c0,33.3-27.092,60.393-60.392,60.393
			s-60.393-27.092-60.393-60.393s27.092-60.392,60.393-60.392S222.33,197.046,222.33,230.347z M187.594,311.388
			c1.138-4.757,4.627-8.967,9.33-11.261c3.107-1.516,6.116-2.12,9.195-1.842c7.615,0.679,14.715-3.911,17.287-11.167
			c4.9-13.819,17.998-23.102,32.594-23.102s27.694,9.284,32.594,23.102c2.573,7.256,9.685,11.845,17.287,11.167
			c3.081-0.278,6.087,0.326,9.194,1.842c4.704,2.295,8.193,6.505,9.331,11.262c1.335,5.578,0.184,11.04-3.241,15.38
			c-3.372,4.274-8.423,6.725-13.858,6.725c-6.049,0-11.611-3.1-14.882-8.291c-1.286-2.042-3.424-3.396-5.819-3.686
			c-0.322-0.038-0.645-0.058-0.964-0.058c-2.064,0-4.063,0.797-5.567,2.248c-6.541,6.311-15.091,9.787-24.075,9.787
			s-17.534-3.476-24.075-9.787c-1.736-1.675-4.134-2.476-6.531-2.19c-2.395,0.29-4.533,1.644-5.819,3.686
			c-3.271,5.192-8.833,8.291-14.882,8.291c-5.434,0-10.486-2.452-13.858-6.725C187.41,322.428,186.26,316.966,187.594,311.388z
			 M289.67,230.347c0-33.3,27.092-60.392,60.392-60.392s60.393,27.092,60.393,60.392s-27.092,60.393-60.393,60.393
			S289.67,263.647,289.67,230.347z M256,67.34c34.755,0,67.825,10.195,96.259,29.574c-3.626,2.73-6.346,5.026-8.061,7.396
			c-17.332,3.162-33.323,10.823-47.52,22.935c-3.511,2.996-6.037,6.737-7.565,10.793c-13.464,8.917-24.715,20.537-33.111,34.113
			c-8.398-13.594-19.641-25.195-33.116-34.112c-1.527-4.055-4.053-7.797-7.565-10.794c-14.197-12.113-30.188-19.773-47.52-22.935
			c-1.715-2.369-4.434-4.665-8.059-7.394C188.181,77.539,221.255,67.34,256,67.34z M84.443,59.324c0-9.42,1.38-18.218,4.111-26.264
			c8.903,35.393,35.341,57.278,52.32,69.885c-10.923,0.802-22.235,3.176-33.845,7.139c-0.599,0.204-1.189,0.416-1.781,0.626
			C99.226,103.581,84.443,83.608,84.443,59.324z M112.625,125.116c35.884-12.127,66.936-7.307,92.29,14.326
			c3.94,3.362,4.812,9.042,2.032,13.214c-2.698,4.047-7.788,5.554-12.103,3.584c-18.271-8.343-54.193-20.793-105.787-20.793
			c-0.078,0-0.16,0-0.239,0C95.73,131.791,103.801,128.097,112.625,125.116z M67.339,230.347
			c0.001-31.468,15.437-60.541,41.395-78.219c12.398,0.828,23.593,2.395,33.57,4.362c-32.657,8.689-56.792,38.503-56.792,73.857
			c0,42.141,34.285,76.426,76.426,76.426c3.565,0,7.068-0.265,10.504-0.74c-0.16,0.538-0.309,1.079-0.44,1.625
			c-1.35,5.644-1.269,11.371,0.131,16.739c-3.379,0.362-6.785,0.547-10.196,0.547C109.775,324.944,67.339,282.507,67.339,230.347z
			 M290.205,495.967c-14.925,0-30.474-7.633-30.62-7.705c-1.129-0.564-2.357-0.847-3.585-0.847s-2.456,0.282-3.585,0.847
			c-0.154,0.077-15.583,7.705-30.62,7.705c-18.999,0-42.355-4.997-58.771-18.171h185.951
			C332.56,490.97,309.203,495.967,290.205,495.967z M182.378,461.642l5.213-13.034l5.261,13.154h-7.993
			C184.023,461.762,183.196,461.721,182.378,461.642z M319.148,461.762l5.261-13.154l5.213,13.034
			c-0.818,0.079-1.645,0.12-2.481,0.12H319.148z M353.238,437.748c-0.58,6.968-3.936,13.151-8.906,17.499l-12.48-31.202
			c-1.217-3.043-4.164-5.039-7.443-5.039s-6.226,1.996-7.443,5.039l-15.087,37.717H210.12l-15.086-37.717
			c-1.217-3.043-4.164-5.039-7.443-5.039s-6.226,1.996-7.443,5.039l-12.48,31.202c-4.97-4.348-8.325-10.531-8.906-17.499
			l-5.209-62.501c9.707,2.67,18.897,4.517,27.506,5.724l16.192,40.479c1.217,3.043,4.164,5.039,7.443,5.039s6.226-1.996,7.443-5.039
			l15.867-39.668c13.684-1.57,23.313-4.42,27.996-6.051c4.683,1.631,14.317,4.478,27.995,6.048l15.869,39.671
			c1.217,3.043,4.164,5.039,7.443,5.039s6.226-1.996,7.443-5.039l16.19-40.476c8.609-1.207,17.8-3.054,27.506-5.724L353.238,437.748
			z M199.008,382.671c3.927,0.19,7.695,0.256,11.286,0.214l-5.6,14L199.008,382.671z M301.701,382.871
			c0.725,0.009,1.434,0.027,2.173,0.027c2.93,0,5.975-0.075,9.119-0.228l-5.687,14.215L301.701,382.871z M297.815,366.671
			c-24.152-0.879-38.539-6.825-38.658-6.875c-2.017-0.865-4.299-0.865-6.316,0c-0.529,0.227-50.507,20.875-123.704-10.024
			l19.251-9.625c4.441,0.545,8.963,0.831,13.549,0.831c6.271,0,12.535-0.539,18.681-1.584c6.314,6.477,14.905,10.135,24.075,10.135
			c8.556,0,16.592-3.215,22.717-8.874c8.392,5.767,18.29,8.874,28.59,8.874s20.198-3.107,28.59-8.874
			c6.125,5.659,14.161,8.874,22.717,8.874c9.166,0,17.753-3.655,24.066-10.127c6.144,1.046,12.418,1.576,18.69,1.576
			c4.587,0,9.107-0.285,13.549-0.831l19.242,9.622C347.21,364.786,317.419,367.383,297.815,366.671z M350.063,324.944
			c-3.409,0-6.813-0.201-10.192-0.563c1.396-5.364,1.477-11.084,0.128-16.723c-0.13-0.546-0.28-1.087-0.44-1.625
			c3.436,0.475,6.939,0.74,10.504,0.74c42.141,0,76.426-34.285,76.426-76.426c0-35.355-24.137-65.169-56.794-73.857
			c9.977-1.967,21.173-3.534,33.57-4.362c25.958,17.677,41.395,46.75,41.395,78.219C444.66,282.507,402.224,324.944,350.063,324.944
			z" />

  </symbol>
  <!-- Лошадь -->
  <symbol id="horse" viewBox="0 0 64 64">
    <ellipse cx="44.729" cy="26.339" rx="3.25" ry="3.934" fill="currentColor"></ellipse>
    <path
      d="M39.597 46.444c-1.438-.964-3.472.778-4.546 3.888c-1.074 3.114-.773 6.42.667 7.383c1.44.967 3.477-.773 4.547-3.887c1.069-3.111.772-6.418-.668-7.384"
      fill="currentColor"></path>
    <path
      d="M24.371 46.444c-1.441.967-1.741 4.272-.668 7.384c1.071 3.113 3.107 4.854 4.548 3.888c1.438-.964 1.737-4.27.665-7.382c-1.071-3.111-3.105-4.853-4.545-3.89"
      fill="currentColor"></path>
    <path
      d="M57.979 2.012c-5.433-.12-9.816.679-12.362 2.237c-.629.924-1.131 2.081-1.504 3.429c-5.349-4.616-16.164-5.075-24.268-.302c-.373-1.206-.842-2.251-1.416-3.079c-2.64-1.586-7.048-2.312-12.417-2.162c-.128 5.107.719 9.227 2.379 11.621c1.02.612 2.31 1.094 3.812 1.45c-1.615 2.99-2.583 6.607-2.583 10.907c0 0 1.103-1.38 3.139-3.192c-.167 7.313-2.826 12.398-2.826 12.398s2.106-.464 4.603-2.38c-1.274 6.382-4.985 11.078-4.985 11.078s3.31-.883 6.772-3.432c-1.229 7.681-7.667 14.226-7.667 14.226s5.295-1.55 9.918-5.212c-.375 1.539-.379 3.103-.379 4.414c0 6.628 5.513 7.986 13.788 7.986s13.788-1.358 13.788-7.986c0-1.233-.001-2.689-.313-4.139c.01-3.039 1.262-8.099 2.654-12.473c.738 1.107 1.003 2.62 1.003 2.62s6.864-9.433 4.697-20.421c-.376-1.902-1.022-3.355-1.807-4.472c1.462-.364 2.702-.847 3.673-1.44c1.685-2.481 2.462-6.626 2.301-11.676M13.812 12.711c-1.317-.198-2.423-.535-3.229-1.019c-.937-1.35-1.412-3.671-1.343-6.55c3.028-.086 5.511.324 6.998 1.219c.477.688.834 1.631 1.062 2.768a20.081 20.081 0 0 0-3.488 3.582m18.17 47.321c-9.859 0-11.787-2.207-11.787-6.019c0-2.811.154-5.276 2.056-6.987l.267-.239l.049-.352c.201-1.436.71-2.51 1.395-2.946c.23-.146.469-.217.731-.217c.673 0 1.476.458 2.263 1.29l.357.376l.518-.074c1.23-.175 2.627-.263 4.152-.263c1.527 0 2.924.088 4.154.263l.518.074l.357-.376c1.096-1.155 2.18-1.59 2.992-1.073c.686.436 1.193 1.509 1.394 2.944l.05.353l.266.239c1.902 1.71 2.057 4.177 2.057 6.988c-.001 3.812-1.929 6.019-11.789 6.019m11.343-14.211c-.325-1.884-1.095-3.258-2.235-3.984c-1.51-.961-3.461-.587-5.171 1.016c-2.39-.29-5.479-.29-7.87 0c-1.709-1.603-3.659-1.978-5.175-1.015c-1.14.729-1.909 2.102-2.235 3.984a7.274 7.274 0 0 0-1.214 1.594c-.91-6.112-4.049-15.801-4.049-18.9c0-2.544-.138-5.178.486-8.076c3.076-2.2 7.206-4.452 12.219-5.547c0 0-3.498 3.937-7.993 7.669a2.686 2.686 0 0 0-.858-.156c-1.796 0-3.25 1.761-3.25 3.935s1.454 3.934 3.25 3.934c1.793 0 3.25-1.76 3.25-3.934c0-1.272-.506-2.391-1.279-3.109c3.859-1.303 10.451-3.975 15.115-8.246c0 0 .816 4.595-8.523 7.64c0 0 16.491-.43 19.33-6.629c1.791 4.088 1.463 7.862 1.463 12.521c0 .624-.129 1.524-.332 2.599c-1.568 3.775-3.641 10.289-4.451 15.229a7.552 7.552 0 0 0-.478-.525M53.46 11.607c-.946.58-2.353.967-4.079 1.144a6.87 6.87 0 0 0-2.256-.748a9.125 9.125 0 0 0-.542-1.198c.132-1.89.551-3.439 1.252-4.474c1.427-.873 3.875-1.317 6.91-1.249c.091 2.819-.344 5.138-1.285 6.525"
      fill="currentColor"></path>
  </symbol>
  <!-- Обезъяна -->
  <symbol id="monkey" viewBox="-10 -5 1034 1034">
    <path fill="currentColor"
      d="M495 238q-59 0 -115.5 20t-98.5 57q-46 40 -68 93q-11 24 -15 50q-29 -30 -66 -30q-29 0 -53 18t-38 49.5t-14 69t14 68.5t38 49.5t53 18.5q18 0 35 -8q-14 36 -14 73.5t16 71.5q31 73 107 120q68 42 154 54q102 14 195 -11q102 -28 166 -99q39 -42 51 -99.5t-8 -108.5
q17 7 34 7q29 0 53 -18.5t38 -49.5t14 -68.5t-14 -69t-38 -49.5t-53 -18q-37 0 -66 31q-13 -76 -64 -127q-45 -46 -109 -71q-61 -23 -129 -23h-5zM622 343q18 0 36 6q38 11 65 43q24 30 34 70.5t4 79.5q1 10 -2 23q-3 8 -9 22q-11 24 -10 34q0 16 21 26q31 30 41 74
q9 42 -3 85.5t-40 74.5q-52 55 -136 78q-71 20 -158 15q-79 -5 -142 -34q-73 -34 -107 -96q-18 -32 -21 -70.5t9 -72.5q14 -37 42 -60q16 -9 15 -24q-1 -9 -11 -29q-7 -15 -9 -23q-4 -13 -2 -23q-6 -39 4 -79.5t35 -70.5q27 -32 65 -44q15 -4 29 -5q40 -2 76 23q34 23 52 61
q16 -36 50 -59.5t72 -24.5zM416 522q-18 0 -30 15.5t-12 37.5t12 37.5t29.5 15.5t30 -15.5t12.5 -37.5t-12.5 -37.5t-29.5 -15.5zM584 522q-17 0 -29.5 15.5t-12.5 37.5t12.5 37.5t30 15.5t29.5 -15.5t12 -37.5t-12 -37.5t-30 -15.5zM721 671q-2 1 -4 1q-97 37 -217 37
t-217 -37q-3 -1 -6 -0.5t-5.5 3t-3 6t1.5 7t5 4.5q102 39 225 39t224 -39q4 -1 6 -4.5t1.5 -7.5t-3.5 -6.5t-7 -2.5z" />
  </symbol>
  <!-- Свинья -->
  <symbol id="pig" viewBox="0 0 64 64">
    <path
      d="M61.801 12.077l-.068-.83l-.812-.096c-.13-.015-3.229-.377-6.915-.377c-4.885 0-8.373.633-10.389 1.882a30.321 30.321 0 0 0-2.703-1.546C38.906 4.774 31.653 3 31.653 3c.802 1.715.495 5.123.495 5.123c-2.221-3.281-6.697-2.291-6.697-2.291c2.057 1.405 1.914 3.363 1.914 3.363c-2.288-.904-5.404.961-5.404.961a8.76 8.76 0 0 1 1.672.687a30.256 30.256 0 0 0-3.434 1.936C18 11.371 14.004 10.658 8.301 10.658c-2.803 0-4.92.18-5.008.188l-.815.071l-.094.827c-.192 1.707-1.739 16.75 3.143 19.48c.211.117.442.201.692.25a29.236 29.236 0 0 0-1.111 7.967C5.107 58.438 18.702 61 32.001 61s26.894-2.562 26.894-21.56c0-2.742-.388-5.469-1.154-8.127c.177-.049.344-.115.5-.2c4.773-2.598 3.698-17.362 3.56-19.036m-4.504 17.242c-.131.07-.428.067-.722.008l-1.708-.345l.568 1.675a27.302 27.302 0 0 1 1.461 8.783c0 17.158-11.965 19.524-24.896 19.524S7.106 56.599 7.106 39.44c0-2.946.484-5.881 1.441-8.721l.601-1.785l-1.794.469c-.393.104-.727.111-.865.035c-2.671-1.493-2.781-10.643-2.206-16.623a66.755 66.755 0 0 1 4.019-.123c5.641 0 9.632.747 11.236 2.102l.576.486l.62-.424a27.567 27.567 0 0 1 4.862-2.664c4.395 3.761 6.395 10.702 6.395 10.702c.949-6.042 4.473-9.121 6.816-10.541a27.75 27.75 0 0 1 4.278 2.375l.608.41l.569-.465c1.471-1.203 4.931-1.865 9.743-1.865c2.471 0 4.712.173 5.865.28c.39 5.868.032 14.811-2.573 16.231"
      fill="currentColor"></path>
    <path
      d="M17.048 16.444c-2.888-1.563-9.854-.959-9.854-.959s-1.118 9.914 1.63 11.449c.05.028.106.046.163.063c1.998-4.169 4.864-7.749 8.061-10.553"
      fill="currentColor"></path>
    <path
      d="M47.276 16.732c3.156 2.84 5.972 6.437 7.909 10.613a.983.983 0 0 0 .205-.076c2.686-1.464 1.883-11.194 1.883-11.194s-6.982-.827-9.997.657"
      fill="currentColor"></path>
    <path
      d="M32.001 36.938c-8.698 0-14.319 5.042-14.319 12.846c0 3.316 1.007 5.506 3.079 6.692c1.769 1.015 4.161 1.222 7.209 1.222c.624 0 1.267-.008 1.926-.016c1.372-.018 2.839-.018 4.21 0c.659.008 1.303.016 1.927.016c5.421 0 10.288-.605 10.288-7.914c-.001-7.804-5.622-12.846-14.32-12.846m4.031 19.233c-.618 0-1.256-.007-1.909-.015c-.691-.009-1.4-.017-2.122-.017s-1.431.008-2.123.017c-.653.008-1.29.015-1.908.015c-2.812.001-4.988-.174-6.474-1.024c-.994-.569-2.314-1.745-2.314-5.362c0-8.346 6.622-11.32 12.819-11.32S44.82 41.44 44.82 49.785c0 5.464-2.711 6.386-8.788 6.386"
      fill="currentColor"></path>
    <ellipse cx="25.947" cy="48.073" rx="3.324" ry="6.23" fill="currentColor"></ellipse>
    <ellipse cx="38.055" cy="48.073" rx="3.322" ry="6.23" fill="currentColor"></ellipse>
    <ellipse cx="16.181" cy="34.648" rx="2.984" ry="5.575" fill="currentColor"></ellipse>
    <path
      d="M47.818 28.929c-1.646 0-2.982 2.494-2.982 5.574c0 3.079 1.336 5.574 2.982 5.574c1.65 0 2.986-2.495 2.986-5.574c.001-3.08-1.335-5.574-2.986-5.574"
      fill="currentColor"></path>
  </symbol>
  <!-- Кролик -->
  <symbol id="rabbit" viewBox="0 0 512 512" fill="currentColor">
    <path class="st0"
      d="M384.186,264.542c-1.351-3.84-2.701-7.579-4.086-11.369c-4.541-12.467-9.233-25.355-13.876-44.718
		c-3.95-16.56-9.942-31.845-17.623-45.173c9.403-10.322,17.134-20.13,23.094-29.289c23.818-36.666,23.616-86.877,9.774-112.394
		C374.024,7.875,361.954,0,348.364,0c-5.806,0-14.619,1.527-23.633,8.803c-23.92,19.321-47.722,61.034-65.566,97.918
		c-1.047-0.034-2.11-0.05-3.156-0.05c-1.064,0-2.111,0.016-3.174,0.05c-17.826-36.884-41.646-78.598-65.549-97.918
		C178.272,1.527,169.46,0,163.636,0c-13.572,0-25.642,7.875-33.104,21.599c-13.843,25.508-14.045,75.728,9.774,112.385
		c5.958,9.167,13.69,18.975,23.092,29.297c-7.68,13.328-13.656,28.613-17.623,45.182c-4.642,19.354-9.335,32.243-13.876,44.71
		c-1.367,3.79-2.735,7.529-4.068,11.369c-18.569,30.808-42,91.334-36.193,130.498C99.556,448.392,134.5,512,256.009,512
		s156.436-63.608,164.353-116.96C426.169,355.876,402.738,295.35,384.186,264.542z M394.72,391.233
		c-10.483,70.706-64.586,94.838-138.711,94.838s-128.228-24.131-138.711-94.838c-4.474-30.175,15.666-86.211,34.116-115.542
		c6.162-18.08,12.863-33.17,19.582-61.193c4.878-20.384,13.436-39.367,25.811-53.96c-11.698-11.462-25.322-26.174-34.758-40.683
		c-23.768-36.573-16.138-93.926,1.587-93.926c2.296,0,4.761,0.953,7.36,3.047c25.051,20.249,52.297,74.893,66.392,105.852
		c5.841-1.41,12.019-2.228,18.62-2.228c6.6,0,12.779,0.818,18.62,2.228c14.079-30.96,41.324-85.604,66.392-105.852
		c2.584-2.094,5.048-3.047,7.343-3.047c17.742,0,25.355,57.353,1.604,93.926c-9.437,14.509-23.06,29.221-34.776,40.683
		c12.391,14.594,20.95,33.576,25.828,53.96c6.719,28.022,13.421,43.113,19.583,61.193
		C379.054,305.022,399.193,361.058,394.72,391.233z" />
    <path class="st0"
      d="M204.572,202.538c-7.546,0-13.674,6.119-13.674,13.665c0,7.521,6.128,13.657,13.674,13.657
		c7.546,0,13.657-6.136,13.657-13.657C218.229,208.657,212.118,202.538,204.572,202.538z" />
    <path class="st0"
      d="M307.445,202.538c-7.563,0-13.674,6.119-13.674,13.665c0,7.521,6.111,13.657,13.674,13.657
		c7.529,0,13.656-6.136,13.656-13.657C321.101,208.657,314.974,202.538,307.445,202.538z" />
    <path class="st0"
      d="M256.009,235.886c-19.464,0-36.497,2.405-29.204,14.585c6.06,10.078,15.428,16.746,24.022,18.763v9.917
		l-18.366,13.733c-2.296,1.713-2.752,4.963-1.047,7.258c1.722,2.296,4.963,2.76,7.258,1.046l17.337-12.964l17.32,12.964
		c2.279,1.714,5.537,1.25,7.258-1.046c1.706-2.296,1.25-5.546-1.046-7.258l-18.349-13.733v-9.926
		c8.576-2.009,17.961-8.677,24.004-18.754C292.488,238.292,275.456,235.886,256.009,235.886z" />
  </symbol>
  <!-- крыса -->
  <symbol id="rat" viewBox="0 0 64 64">
    <path
      d="M56 13.641C56 7.222 50.644 2 44.062 2c-5.25 0-9.835 3.388-11.376 8.14a9.768 9.768 0 0 0-1.371 0C29.772 5.388 25.187 2 19.938 2C13.355 2 8 7.222 8 13.641c0 5.455 3.885 10.057 9.1 11.305c-1.628 3.754-4.579 11.734-4.579 20.273c0 .158.007.305.009.457c-.379.316-.75.641-1.095.998c-.703.73-1.344 1.547-1.853 2.486a8.282 8.282 0 0 0-.633 1.508a6.496 6.496 0 0 0-.277 1.68c-.016.582.057 1.17.216 1.729a5.99 5.99 0 0 0 .694 1.553c.589.943 1.363 1.67 2.164 2.264c.401.297.819.566 1.232.803a15.954 15.954 0 0 0 3.994 1.637c1.851.48 3.707.635 5.518.717c1.813.082 3.602.094 5.389.146c1.788.047 3.57.123 5.352.256a92.14 92.14 0 0 1 5.34.549a94.415 94.415 0 0 0-5.275-1.053a116.259 116.259 0 0 0-5.335-.766c-1.784-.221-3.57-.402-5.322-.646c-1.748-.248-3.466-.566-5.033-1.139a13.71 13.71 0 0 1-2.236-1.047c-.35-.207-.698-.432-1.025-.666a9.985 9.985 0 0 1-.928-.742c-.573-.516-1.042-1.084-1.323-1.668c-.282-.582-.373-1.156-.292-1.732s.336-1.168.724-1.736c.132-.193.294-.379.455-.564c.887 4.176 3.093 6.426 6.834 7.053c.739 1.016 1.965 1.656 3.319 1.656h1.475c1.42 0 2.7-.723 3.423-1.818c1.248-.098 2.593-.184 3.97-.184c1.265 0 2.513.074 3.772.17c.72 1.105 2.003 1.832 3.433 1.832h1.476a4.107 4.107 0 0 0 3.294-1.625c5.179-.775 7.505-4.561 7.505-12.105c0-8.547-2.951-16.523-4.579-20.274C52.115 23.697 56 19.096 56 13.641m-44.161 1.165c0-3.863 3.233-7.006 7.207-7.006c3.09 0 5.794 1.914 6.793 4.678c-2.635 2.011-5.06 5.139-7.228 9.322c-3.772-.219-6.772-3.273-6.772-6.994M49.56 45.219c0 8.066-2.672 10.072-6.818 10.346c-.233.861-1.063 1.502-2.061 1.502h-1.476c-1.082 0-1.967-.756-2.104-1.732c-1.615-.133-3.327-.268-5.102-.268c-1.844 0-3.621.145-5.291.283c-.144.969-1.025 1.717-2.103 1.717H23.13c-1.001 0-1.837-.646-2.064-1.516c-4.037-.322-6.626-2.391-6.626-10.332c0-9.559 2.548-16.237 5.092-21.003c1.708-3.199 5.745-9.833 9.042-11.342c2.075-.949 4.616-1.033 6.849-.001c3.293 1.522 7.337 8.146 9.044 11.346c2.544 4.766 5.093 11.445 5.093 21M45.388 21.8c-2.19-4.24-4.568-7.31-7.228-9.327c1-2.761 3.704-4.673 6.792-4.673c3.975 0 7.208 3.143 7.208 7.006c0 3.721-2.999 6.775-6.772 6.994"
      fill="currentColor"></path>
    <path
      d="M32.001 33.152c-.51 0-2.214.045-2.77.619c-.395.408-.089 1.422.962 2.295c.665.553 1.298.727 1.808.727s1.144-.174 1.807-.727c1.052-.873 1.357-1.887.962-2.295c-.555-.574-2.26-.619-2.769-.619"
      fill="currentColor"></path>
    <ellipse cx="25.429" cy="27.143" rx="2.881" ry="2.823" fill="currentColor"></ellipse>
    <ellipse cx="38.57" cy="27.143" rx="2.88" ry="2.823" fill="currentColor"></ellipse>
    <path
      d="M32.975 37.67a2.51 2.51 0 0 0-.792.189c-.242.111-.476.24-.679.42c-.198.172-.405.395-.461.688c.259-.102.51-.127.741-.213c.236-.068.459-.16.683-.246c.219-.1.436-.193.646-.303c.219-.09.4-.248.678-.279c-.197-.242-.552-.272-.816-.256"
      fill="currentColor"></path>
  </symbol>
  <!-- Овца -->
  <symbol id="sheep" viewBox="0 0 511.999 511.999" fill="currentColor">
    <path
      d="M501.459,281.635c-7.024-12.159-28.506-33.912-65.598-66.42c0.144-1.664,0.228-3.335,0.228-5.005
    c0-21.264-11.85-40.787-30.183-50.826c0.042-1.124,0.065-2.245,0.065-3.356c0-20.184-6.374-39.371-18.436-55.486
    c-3.499-4.678-10.128-5.633-14.806-2.131c-4.677,3.5-5.632,10.129-2.131,14.806c9.301,12.429,14.216,27.233,14.216,42.812
    c0,2.806-0.18,5.692-0.534,8.573c-0.596,4.853,2.212,9.482,6.79,11.196c14.273,5.346,23.864,19.174,23.864,34.411
    c0,2.407-0.236,4.816-0.704,7.176c-1.76,8.937-6.798,16.876-14.183,22.351c-5.147,3.812-11.213,6.212-17.59,6.944
    c-1.702,0.203-3.477,0.304-5.256,0.226c-0.046-0.002-0.091-0.003-0.136-0.004c-12.559-0.374-23.921-7.05-30.392-17.859
    c-2.505-4.183-7.543-6.114-12.202-4.671c-6.828,2.112-13.955,3.184-21.184,3.184c-19.177,0-37.192-7.492-50.727-21.095
    c-1.985-1.997-4.686-3.118-7.501-3.117c-2.815,0.001-5.514,1.124-7.5,3.119c-13.522,13.602-31.536,21.093-50.724,21.093
    c-7.23,0-14.356-1.072-21.183-3.184c-4.661-1.444-9.7,0.489-12.203,4.674c-6.465,10.805-17.829,17.484-30.303,17.864l-0.126,0.003
    c-1.365,0.031-2.684,0.01-3.96-0.093c-6.543-0.502-12.838-2.757-18.202-6.522c-7.486-5.255-12.721-13.015-14.744-21.865
    c-0.614-2.666-0.924-5.432-0.924-8.223c0-15.237,9.59-29.066,23.864-34.411c4.566-1.71,7.373-6.321,6.794-11.164
    c-0.363-3.023-0.538-5.839-0.538-8.607c0-39.441,32.087-71.528,71.528-71.528c19.187,0,37.201,7.491,50.724,21.094
    c1.985,1.996,4.685,3.118,7.5,3.119c0.001,0,0.001,0,0.002,0c2.815,0,5.513-1.122,7.499-3.117
    c13.536-13.604,31.551-21.096,50.727-21.096c5.869,0,11.702,0.711,17.34,2.113c5.666,1.414,11.408-2.042,12.818-7.711
    c1.41-5.669-2.043-11.408-7.711-12.818c-7.306-1.818-14.858-2.74-22.447-2.74c-21.453,0-41.783,7.235-58.224,20.557
    c-16.432-13.32-36.765-20.557-58.228-20.557c-51.106,0-92.684,41.578-92.684,92.684c0,1.115,0.022,2.231,0.065,3.356
    c-18.332,10.038-30.183,29.561-30.183,50.826c0,2.187,0.123,4.369,0.366,6.527c-36.04,31.686-56.955,52.941-63.864,64.898
    c-10.467,18.117-13.25,39.227-7.839,59.442c5.41,20.218,18.37,37.116,36.49,47.579c12.078,6.979,25.482,10.544,39.065,10.544
    c6.797,0,13.641-0.894,20.384-2.698c20.212-5.41,37.109-18.368,47.574-36.483c1.318-2.281,2.663-5.146,4.043-8.594
    c27.544,56.247,70.517,97.233,104.811,97.233c35.012,0,78.366-41.856,105.857-99.35c1.67,4.416,3.288,7.976,4.867,10.709
    c10.467,18.117,27.362,31.075,47.575,36.486c6.743,1.805,13.586,2.698,20.384,2.698c13.583,0,26.989-3.565,39.063-10.543
    c18.122-10.466,31.081-27.362,36.492-47.58C514.71,320.862,511.926,299.752,501.459,281.635z M105.826,261.875
    c3.274,1.653,6.692,2.996,10.211,3.999c-8.702,49.078-13.443,60.069-14.751,62.329c-3.144,5.444-8.22,9.338-14.293,10.963
    c-6.07,1.625-12.412,0.788-17.855-2.357c-11.239-6.489-15.1-20.915-8.611-32.153C61.795,302.463,68.786,293.058,105.826,261.875z
     M127.889,349.435c-7.639,13.224-19.973,22.682-34.727,26.632c-14.755,3.949-30.166,1.917-43.396-5.728
    c-13.226-7.639-22.686-19.974-26.636-34.732c-3.95-14.756-1.918-30.166,5.72-43.391c3.055-5.287,14.029-19.111,52.668-53.534
    c2.019,3.569,4.407,6.922,7.145,9.994c-39.652,33.637-44.711,42.379-46.454,45.393c-5.97,10.339-7.559,22.383-4.471,33.915
    c3.087,11.534,10.48,21.174,20.818,27.142c6.887,3.98,14.531,6.013,22.28,6.013c3.878,0,7.781-0.509,11.628-1.539
    c11.533-3.088,21.172-10.481,27.139-20.815c1.432-2.477,5.033-8.709,11.365-38.569c1.951,7.154,4.182,14.241,6.672,21.235
    C132.998,338.611,129.795,346.138,127.889,349.435z M364.39,269.214c-2.602,15.245-6.586,30.454-11.836,45.206
    c-0.004,0.011-0.007,0.022-0.012,0.034c-11.371,31.906-28.67,61.384-48.713,83.006c-17.438,18.811-35.67,30.043-48.767,30.043
    c-12.867,0-30.802-10.914-47.975-29.198c-19.722-20.995-36.93-49.748-48.454-80.966c-5.774-15.639-10.115-31.831-12.895-48.106
    c-0.153-0.911-0.281-1.812-0.424-2.719c12.454-2.936,23.57-9.903,31.649-19.941c6.499,1.421,13.156,2.138,19.874,2.138
    c21.464,0,41.795-7.235,58.228-20.556c16.44,13.32,36.77,20.556,58.224,20.556c6.72,0,13.376-0.717,19.878-2.138
    c8.082,10.038,19.198,17.003,31.65,19.935C364.672,267.411,364.545,268.308,364.39,269.214z M405.445,261.273
    c37.653,31.648,44.738,41.166,46.016,43.377c6.493,11.243,2.631,25.67-8.61,32.16c-5.441,3.145-11.781,3.979-17.853,2.355
    c-6.073-1.625-11.149-5.518-14.296-10.967c-1.308-2.264-6.08-13.334-14.844-62.866
    C399.168,264.274,402.375,262.911,405.445,261.273z M488.862,335.607c-3.949,14.758-13.409,27.093-26.638,34.733
    c-13.228,7.642-28.639,9.676-43.394,5.726c-14.754-3.949-27.087-13.407-34.728-26.633c-2.049-3.547-5.513-11.81-10.554-31.015
    c2.507-7.299,4.732-14.692,6.653-22.144c6.845,33.265,10.692,39.926,12.184,42.507c5.971,10.338,15.609,17.732,27.142,20.82
    c3.847,1.03,7.75,1.539,11.629,1.539c7.746,0,15.392-2.033,22.277-6.011c10.339-5.971,17.733-15.611,20.82-27.144
    c3.087-11.531,1.499-23.576-4.473-33.919c-1.762-3.046-6.889-11.909-47.531-46.298c2.69-3.147,5.019-6.569,6.969-10.201
    c39.612,35.192,50.819,49.276,53.923,54.649C490.78,305.442,492.812,320.851,488.862,335.607z" />
    <path
      d="M211.206,264.817c-5.841,0-10.578,4.737-10.578,10.578c0,5.68-4.62,10.302-10.301,10.302
    c-5.687,0-10.312-4.621-10.312-10.302c0-5.841-4.737-10.578-10.578-10.578c-5.841,0-10.578,4.737-10.578,10.578
    c0,17.345,14.117,31.457,31.467,31.457c17.344,0,31.456-14.112,31.456-31.457C221.784,269.553,217.047,264.817,211.206,264.817z"
    />
    <path
      d="M338.382,264.817c-5.841,0-10.578,4.737-10.578,10.578c0,5.68-4.621,10.302-10.302,10.302
			c-5.686,0-10.311-4.621-10.311-10.302c0-5.841-4.737-10.578-10.578-10.578c-5.841,0-10.578,4.737-10.578,10.578
			c0,17.345,14.116,31.457,31.466,31.457c17.345,0,31.457-14.112,31.457-31.457C348.96,269.553,344.224,264.817,338.382,264.817z" />
    <path
      d="M275.338,340.145c-5.643-2.562-12.188-3.087-20.277-3.087c-8.09,0-14.635,0.525-20.281,3.085
			c-8.255,3.745-12.801,11.238-12.801,21.099c0,18.235,14.839,33.07,33.081,33.07c18.235,0,33.07-14.834,33.07-33.07
			C288.13,351.383,283.588,343.89,275.338,340.145z M255.061,373.158c-6.576,0-11.925-5.345-11.925-11.915
			c0-0.987,0.115-1.519,0.183-1.744c0.832-0.52,3.465-1.285,11.743-1.285c8.266,0,10.899,0.764,11.732,1.282
			c0.067,0.226,0.183,0.76,0.183,1.747C266.975,367.814,261.631,373.158,255.061,373.158z" />
    <path
      d="M365.69,79.567c-0.608-0.417-1.222-0.827-1.841-1.23c-4.894-3.191-11.447-1.806-14.636,3.088
			c-3.19,4.895-1.808,11.448,3.088,14.636c0.478,0.312,0.953,0.63,1.424,0.953c1.829,1.255,3.912,1.855,5.973,1.855
			c3.37,0,6.682-1.608,8.733-4.596C371.734,89.455,370.508,82.871,365.69,79.567z" />
  </symbol>
  <!-- Змея -->
  <symbol id="snake" viewBox="0 0 512 512" fill="currentColor">
    <path
      d="M393.215,5.731c-53.209-15.764-121.957,5.441-137.229,10.589c-6.824-2.279-24.57-7.82-46.969-11.867
    c-37.614-6.737-89.43-9.117-122.67,17.821C66.194,38.609,55.44,63.424,54.383,96.04c-0.127,1.888-0.127,3.769-0.127,5.589
    c0,62.451,9.885,116.827,29.371,161.591c19.275,44.627,47.674,79.894,84.393,104.816c44.753,30.519,85.469,34.545,87.181,34.702
    l0.805,0.074l0.806-0.074c1.69-0.156,41.923-4.175,86.321-34.095c37.094-25.076,65.732-60.461,85.102-105.138
    c9.138-20.816,16.141-43.797,20.796-68.197c5.782-28.3,8.713-59.818,8.713-93.677C457.744,66.533,446.545,21.405,393.215,5.731z
     M97.41,35.927c17.142-13.891,41.12-18.375,64.936-18.375c11.028,0,22.014,0.969,32.276,2.403
    c-34.183,67.551-99.41,70.009-122.155,68.637C74.653,65.301,83.01,47.597,97.41,35.927z M412.128,256.477
    c-18.036,41.595-44.56,74.434-78.827,97.599c-37.16,25.042-71.652,30.344-77.318,31.069c-5.706-0.709-40.388-5.935-78.079-31.639
    c-33.924-23.025-60.216-55.746-78.155-97.276c-18.062-41.492-27.417-91.99-27.877-150.11c2.4,0.129,5.16,0.218,8.242,0.218
    c32.146,0,98.213-9.625,132.553-83.291c23.274,4.722,40.166,10.766,40.346,10.83l2.995,1.084l2.993-1.088
    c0.708-0.257,67.341-24.096,119.751-13.617c-7.4,20.087-20.845,67.265,6.234,88.928c11.854,9.512,15.88,22.773,20.542,38.129
    c4.797,15.804,10.195,33.565,25.326,49.179C426.449,217.977,420.18,238.137,412.128,256.477z M435.048,173.526
    c-6.149-9.762-9.372-20.333-12.706-31.318c-5.048-16.624-10.267-33.815-26.368-46.736c-17.239-13.79-7.815-50.728-0.323-70.355
    c29.931,11.645,44.521,36.752,44.521,76.514C440.172,127.143,438.45,151.219,435.048,173.526z" />
    <path
      d="M185.834,122.782c-27.413,0-49.717,22.303-49.717,49.717c0,27.413,22.303,49.715,49.717,49.715
			c27.413,0,49.715-22.302,49.715-49.715S213.247,122.782,185.834,122.782z M185.834,204.642c-17.724,0-32.145-14.421-32.145-32.144
			c0-17.725,14.421-32.145,32.145-32.145c17.724,0,32.144,14.421,32.144,32.145S203.558,204.642,185.834,204.642z" />
    <path
      d="M326.166,122.781c-27.413,0-49.715,22.303-49.715,49.717c0,27.413,22.302,49.715,49.715,49.715
			c27.413,0,49.715-22.302,49.715-49.715C375.881,145.084,353.58,122.781,326.166,122.781z M326.166,204.642
			c-17.724,0-32.144-14.421-32.144-32.144c0-17.725,14.421-32.145,32.144-32.145s32.144,14.421,32.144,32.145
			C358.31,190.223,343.89,204.642,326.166,204.642z" />
    <polygon
      points="264.786,472.911 264.786,429.775 247.214,429.775 247.214,472.912 220.551,499.575 232.976,512 255.999,488.978 
			279.023,512 291.45,499.575 		" />
    <rect x="209.222" y="268.967" width="35.083" height="17.572" />
    <rect x="232.616" y="87.698" width="35.083" height="17.572" />
    <rect x="267.689" y="64.309" width="35.083" height="17.572" />
    <rect x="267.689" y="268.967" width="35.083" height="17.572" />
    <rect x="177.042" y="155.136" width="17.572" height="33.64" />
    <rect x="317.616" y="155.136" width="17.572" height="33.64" />
  </symbol>
  <!-- Тигр -->
  <symbol id="tiger" viewBox="0 0 64 64" >
    <path
    d="M11.18 15.074c1.493-2.916 3.297-4.938 5.28-6.338c-1.807-1.171-4.966-1.582-6.499-1.582c0 0-1.817 5.811 1.219 7.92"
    fill="currentColor"></path>
  <path
    d="M52.818 15.072c3.032-2.109 1.219-7.918 1.219-7.918c-1.536 0-4.693.41-6.502 1.581c1.985 1.401 3.789 3.421 5.283 6.337"
    fill="currentColor"></path>
  <path d="M42.121 12.833c-2.216-8.148-18.058-8.305-20.243.054c4.389-3.675 15.856-3.671 20.243-.054"
    fill="currentColor"></path>
  <path d="M25.068 16.096c3.608-3.017 10.254-3.009 13.863-.036c-1.497-5.491-12.386-5.607-13.863.036"
    fill="currentColor"></path>
  <path
    d="M62 37.031l-.043-1.689c-.202-8.092-4.651-12.531-5.698-13.467a37.917 37.917 0 0 0-1.1-3.765c5.384-4.57 2.193-14.991 2.05-15.446L57.001 2h-.716c-3.463 0-9.974.977-13.354 3.57c-3.063-.846-6.236-.92-9.236-.92L32 4.653l-1.697-.003c-3 0-6.174.074-9.236.92C17.686 2.977 11.174 2 7.712 2h-.715l-.209.664c-.144.455-3.334 10.876 2.05 15.446a37.895 37.895 0 0 0-1.1 3.764c-1.044.934-5.496 5.372-5.697 13.468L2 37.031l1.981-1.137c-.571 2.436-.929 6.451.998 11.004l.602 1.42l2.579-2.93c.793 2.372 2.894 6.396 8.313 8.848l1.216.551l.314-2.663c1.269.738 3.385 1.785 6.201 2.562c.444 1.469 1.406 3.25 3.466 4.867L30.783 62l.012-1.356c.084.049.17.097.257.143l.934.5l.935-.5c.086-.046.172-.094.256-.143l.006.735l2.895-1.672a7.1 7.1 0 0 0 1.57-1.239l.785 1.443l1.811-2.546c.861-1.21 1.42-2.344 1.763-3.389a25.39 25.39 0 0 0 3.989-1.853l.313 2.663l1.217-.551c5.419-2.452 7.519-6.476 8.313-8.848l2.578 2.93l.602-1.42c1.926-4.553 1.568-8.569.998-11.005L62 37.031M8.45 3.89c3.113.127 9.042 1.028 11.74 3.416l.411.364l.532-.163c2.958-.906 6.151-.982 9.169-.982L32 6.527l1.695-.003c3.018 0 6.211.076 9.17.982l.531.163l.411-.364c2.698-2.388 8.628-3.289 11.74-3.416c.604 2.353 2.209 10.153-2.093 13.143l-.598.416l.253.669c.527 1.393.981 2.943 1.369 4.63c.103 1.208.489 6.661-.362 11.482c-1.907 6.24-5.571 7.387-8.769 6.967c-.475-2.217-1.486-4.829-3.029-7.847c4.403 1.657 10.539-1.035 9.931-7.213c-.355-3.599-.408-3.907-7.467-3.18c-7.064.73-7.057 1.046-6.701 4.641a7.468 7.468 0 0 0 .789 2.727c-.217 2.437-.603 5.894-1.154 7.592c-3.082-.64-8.44-.609-11.463.009c-.68-1.844-1.033-5.128-1.207-7.494c.435-.799.734-1.739.844-2.833c.354-3.595.362-3.91-6.701-4.641c-7.059-.728-7.113-.419-7.466 3.18c-.616 6.232 5.635 8.918 10.046 7.167c-1.374 2.858-2.286 5.474-2.719 7.828c-3.289.569-7.19-.399-9.175-6.92c-.845-4.808-.462-10.237-.359-11.458c.389-1.688.843-3.242 1.371-4.637l.253-.669l-.597-.416C6.249 14.049 7.849 6.243 8.45 3.89m38.607 24.395c1.277 0 2.314-1.054 2.314-2.354c0-.761-.359-1.339-.91-1.693c1.418.096 1.5.629 1.665 1.959c.693 5.619-9.272 6.444-9.966.827c-.251-2.033-.255-2.211 4.711-2.626c.221-.019.422-.034.624-.05c-.459.359-.753.896-.753 1.583c0 1.3 1.035 2.354 2.315 2.354m-26.361 0c1.28 0 2.313-1.054 2.313-2.354c0-.423-.118-.785-.309-1.089c1.322.329 1.272.865 1.111 2.182c-.692 5.617-10.661 4.792-9.966-.827c.249-2.03.29-2.208 5.22-1.802c-.422.359-.684.882-.684 1.536c.002 1.3 1.037 2.354 2.315 2.354M4.093 33.653c.455-3.99 2.058-6.86 3.346-8.585c-.065 1.735-.074 4.104.156 6.576l-3.502 2.009m13.724 16.105l-1.36-1.028l-.377 3.2c-5.751-3.211-6.434-8.42-6.461-8.651l-.241-2.16l-3.157 3.587c-1.835-5.821.296-10.42.318-10.468l1.088-2.257c.379 3.729 1.316 7.631 3.435 9.898c1.259 1.348 2.822 2.031 4.646 2.031h.003c.963 0 1.985-.198 3.07-.578c-.117 2.012.159 3.808.843 5.376a8.76 8.76 0 0 0 2.451 3.271c-2.698-1.069-4.229-2.201-4.258-2.221m20.835 6.543l-.908-1.669s-.669 2.316-2.658 3.466l-.019-2.207s-.811 2.04-3.082 3.256c-2.271-1.216-3.081-3.256-3.081-3.256l-.02 2.207c-3.634-2.854-3.09-6.207-3.09-6.207s-9.929-2.711-2.192-18.547c-.282 2.811.983 5.434.983 5.434l.022.007c.255.873 2.682 2.613 6.551 2.837c.081 1.895.387 4.133.636 5.441c-1.783 1.063-3.783 2.69-6 4.828c5.443-1.186 9.962-6.599 13.899-3.681c.848 1.354 1.768 4.143-1.041 8.091m1.262-8.072c-.127 0-.199-.006-.199-.006c-1.447-2.633-3.582-3.159-6.352-1.979c-.202-1.208-.438-3.052-.512-4.625c3.851-.233 6.254-1.964 6.512-2.834l.025-.008s.846-2.141.822-5.368c7.325 12.745 1.091 14.82-.296 14.82m17.861-3.524l-3.156-3.587l-.24 2.16c-.007.057-.671 5.407-6.463 8.65l-.377-3.207l-1.361 1.037c-.026.02-1.363 1.014-3.742 2.017a7.92 7.92 0 0 0-.136-2.147a5.142 5.142 0 0 0 2.532-2.197c.625-1.069.893-2.39.822-3.958c.922.287 1.801.438 2.631.438c1.824 0 3.388-.685 4.646-2.032c2.124-2.272 3.062-6.189 3.438-9.926l1.086 2.283c.024.048 2.156 4.648.32 10.469M56.4 31.646c.229-2.473.221-4.843.156-6.578c1.29 1.726 2.893 4.596 3.349 8.587L56.4 31.646"
    fill="currentColor"></path>
  </symbol>
</svg>   